<svg id="visual" viewBox="0 0 900 600" width="900" height="600" xmlns="http://www.w3.org/2000/svg" xmlns:xlink="http://www.w3.org/1999/xlink" version="1.1"><rect x="0" y="0" width="900" height="600" fill="#001220"></rect><path d="M0 240L21.5 227C43 214 86 188 128.8 187.5C171.7 187 214.3 212 257.2 216.7C300 221.3 343 205.7 385.8 198.3C428.7 191 471.3 192 514.2 197.5C557 203 600 213 642.8 212.3C685.7 211.7 728.3 200.3 771.2 195.5C814 190.7 857 192.3 878.5 193.2L900 194L900 0L878.5 0C857 0 814 0 771.2 0C728.3 0 685.7 0 642.8 0C600 0 557 0 514.2 0C471.3 0 428.7 0 385.8 0C343 0 300 0 257.2 0C214.3 0 171.7 0 128.8 0C86 0 43 0 21.5 0L0 0Z" fill="#27374d"></path><path d="M0 187L21.5 175.5C43 164 86 141 128.8 134.5C171.7 128 214.3 138 257.2 150.8C300 163.7 343 179.3 385.8 185.8C428.7 192.3 471.3 189.7 514.2 181.7C557 173.7 600 160.3 642.8 152.8C685.7 145.3 728.3 143.7 771.2 142.2C814 140.7 857 139.3 878.5 138.7L900 138L900 0L878.5 0C857 0 814 0 771.2 0C728.3 0 685.7 0 642.8 0C600 0 557 0 514.2 0C471.3 0 428.7 0 385.8 0C343 0 300 0 257.2 0C214.3 0 171.7 0 128.8 0C86 0 43 0 21.5 0L0 0Z" fill="#4f5f72"></path><path d="M0 132L21.5 132.3C43 132.7 86 133.3 128.8 131.8C171.7 130.3 214.3 126.7 257.2 124.8C300 123 343 123 385.8 124.7C428.7 126.3 471.3 129.7 514.2 128.5C557 127.3 600 121.7 642.8 117.7C685.7 113.7 728.3 111.3 771.2 108.8C814 106.3 857 103.7 878.5 102.3L900 101L900 0L878.5 0C857 0 814 0 771.2 0C728.3 0 685.7 0 642.8 0C600 0 557 0 514.2 0C471.3 0 428.7 0 385.8 0C343 0 300 0 257.2 0C214.3 0 171.7 0 128.8 0C86 0 43 0 21.5 0L0 0Z" fill="#7b8a99"></path><path d="M0 108L21.5 107.7C43 107.3 86 106.7 128.8 108.3C171.7 110 214.3 114 257.2 108.5C300 103 343 88 385.8 81.2C428.7 74.3 471.3 75.7 514.2 75.3C557 75 600 73 642.8 71.5C685.7 70 728.3 69 771.2 69.8C814 70.7 857 73.3 878.5 74.7L900 76L900 0L878.5 0C857 0 814 0 771.2 0C728.3 0 685.7 0 642.8 0C600 0 557 0 514.2 0C471.3 0 428.7 0 385.8 0C343 0 300 0 257.2 0C214.3 0 171.7 0 128.8 0C86 0 43 0 21.5 0L0 0Z" fill="#abb7c2"></path><path d="M0 33L21.5 39.7C43 46.3 86 59.7 128.8 62.7C171.7 65.7 214.3 58.3 257.2 55.2C300 52 343 53 385.8 52.8C428.7 52.7 471.3 51.3 514.2 49.3C557 47.3 600 44.7 642.8 43.3C685.7 42 728.3 42 771.2 41.8C814 41.7 857 41.3 878.5 41.2L900 41L900 0L878.5 0C857 0 814 0 771.2 0C728.3 0 685.7 0 642.8 0C600 0 557 0 514.2 0C471.3 0 428.7 0 385.8 0C343 0 300 0 257.2 0C214.3 0 171.7 0 128.8 0C86 0 43 0 21.5 0L0 0Z" fill="#dde6ed"></path></svg>